<svg xmlns="http://www.w3.org/2000/svg"  viewBox="0 0 48 48" width="64px" height="64px"><path fill="#2100c4" d="M45,32c0,3.5,0,13,0,13s-28.75,0-32,0c0-7.64,5.06-13.25,10.29-16.31C26.28,26.93,29.32,26,31.5,26	c0.99,0,2.06,0.1,3.16,0.28C39.62,27.08,45,29.54,45,32z"/><path fill="#eb7900" d="M38,42c-9.22,0-13.34-9.98-14.71-13.31C26.28,26.93,29.32,26,31.5,26c0.99,0,2.06,0.1,3.16,0.28	C39.58,35.59,45.66,42,38,42z"/><path fill="#f5bc00" d="M45,16c0,3.08-0.5,5-1.57,5c-0.18,0-0.28,0.03-0.43,0c0,2.25-1.75,10.75-8,15.75	c-1.68,1.34-3.75,0.75-5-0.25s-6-5-6-12.5c-2.5-2-3.75-7-1-8c0-3-0.25-5,1.5-7s3-2.25,4.5-3c1-0.5,2.75-2,5.75-2	C38.75,4,45,10,45,16z"/><path fill="#2100c4" d="M35.839,33.45c-0.94-1.149-2.534-1.399-3.4-1.445c-1.563-0.093-2.676,0.356-2.878,0.556l-2.121-2.121	c0.977-0.977,2.996-1.537,5.121-1.433c2.366,0.118,4.355,1.021,5.601,2.543L35.839,33.45z"/><rect width="3" height="9.1" x="25.375" y="14.7" fill="#2100c4" transform="rotate(-20.922 26.879 19.251)"/><path fill="#2100c4" d="M45,16c0,3.08-0.58,4.8-1.57,5H43c-0.75,0-1.25-0.25-2-1s-3.75-1.25-6-2s-3.75-3.5-4-5	c-0.5,1-1.5,1.75-3,2c0,0,0,1.75,0,3c-1.5,0-2.75-2.5-5-2c0-3-0.25-5,1.5-7s3-2.25,4.5-3c1-0.5,2.75-2,5.75-2C38.75,4,45,10,45,16z"/><path fill="#2100c4" d="M34,25c0-1.25-1.286-2.149-3.5-3c-3.25-1.25-3.75,0.955-3.75,2.75S28.205,28,30,28S34,26.795,34,25z"/><path fill="#2100c4" d="M35.5,26c0-1.25,0.628-2,3-2c1.5,0,3.75,0,3.75,1c0,1.795-1.455,4-3.25,4S35.5,27.25,35.5,26z"/><rect width="3" height="12.502" x="33.625" y="18.249" fill="#2100c4" transform="rotate(-78.463 35.126 24.5)"/><path fill="#f5bc00" d="M11.5,21.001c-0.848,0-1.635-0.544-1.905-1.395l-3.5-11C5.759,7.554,6.341,6.429,7.394,6.094	c1.055-0.33,2.178,0.248,2.512,1.3l3.5,11c0.335,1.053-0.247,2.178-1.299,2.513C11.905,20.97,11.7,21.001,11.5,21.001z"/><path fill="#f5bc00" d="M13,20c-1.104,0-2-0.896-2-2V6c0-1.104,0.896-2,2-2s2,0.896,2,2v12C15,19.104,14.104,20,13,20z"/><path fill="#f5bc00" d="M10.001,23c-0.608,0-1.208-0.276-1.602-0.8l-6-8c-0.663-0.884-0.483-2.138,0.4-2.8	c0.884-0.664,2.138-0.483,2.8,0.399l6,8c0.663,0.884,0.483,2.138-0.4,2.8C10.84,22.87,10.419,23,10.001,23z"/><path fill="#f5bc00" d="M13.998,20.5c-0.336,0-0.677-0.085-0.99-0.264c-0.959-0.548-1.292-1.77-0.744-2.729l5-8.75	c0.548-0.959,1.771-1.291,2.729-0.744c0.959,0.548,1.292,1.77,0.744,2.729l-5,8.75C15.367,20.139,14.692,20.5,13.998,20.5z"/><path fill="#f5bc00" d="M25,45H10c0-10,2-14,2-18c0-2.25-5-1.25-5-9c6.25-1.5,12.25,1.25,14,2c0.75,2.5,0.937,5.501,0,7	C18.5,31,25,39.75,25,45z"/><path fill="#f5bc00" d="M21,20c-0.5-1.75-1-2.5-1-4c0-1.25,2-2,2-3.25s-1.25-2.25-3.75-1c-3.354,1.677-3,7-1.25,9.25L21,20z"/><path fill="#eb7900" d="M13,45c1.251,0,6.285,0,12,0c0-3.998-3.76-10.022-4.454-14.436C16.423,33.812,13,38.718,13,45z"/><path fill="#eb7900" d="M20.481,11.189c-0.579-0.045-1.32,0.106-2.231,0.561c-2.563,1.281-2.957,4.689-2.221,7.23	L20.481,11.189z"/><circle cx="19.5" cy="11.5" r="1.5" fill="#fae56b"/><circle cx="16.5" cy="24.5" r="1.5" fill="#fae56b"/><circle cx="14.5" cy="31.5" r="1.5" fill="#fae56b"/><circle cx="18.5" cy="41.5" r="1.5" fill="#fadb00"/><circle cx="10.5" cy="36.5" r="1.5" fill="#fae56b"/><circle cx="7.5" cy="40.5" r="1.5" fill="#fae56b"/><circle cx="7.5" cy="30.5" r="1.5" fill="#fae56b"/><path fill="#fadb00" d="M12,36.5c0-0.732-0.526-1.34-1.22-1.472c-0.147,0.899-0.286,1.883-0.406,2.959	C10.416,37.991,10.457,38,10.5,38C11.328,38,12,37.328,12,36.5z"/><polygon fill="#2100c4" points="31,33.5 31,36 34,36 34.5,33.75"/></svg>