<svg xmlns="http://www.w3.org/2000/svg"  viewBox="0 0 48 48" width="64px" height="64px"><path fill="#6c19ff" d="M24.333,15.02l-1.674-3.349C22.645,11.646,21,8.5,18,8.5v-3c2.582,0,4.461,1.301,5.672,2.554 C24.897,5.851,27.213,3,31,3v3c-3.848,0-5.55,5.387-5.566,5.441L24.333,15.02z"/><ellipse cx="24" cy="26.5" fill="#fa91ad" rx="18" ry="16.5"/><path fill="#fa91ad" d="M41.5,32h-35C4.567,32,3,30.433,3,28.5l0,0C3,26.567,4.567,25,6.5,25h35 c1.933,0,3.5,1.567,3.5,3.5l0,0C45,30.433,43.433,32,41.5,32z"/><path fill="#2100c4" d="M22,29h-3c0-1.103-1.121-2-2.5-2S14,27.897,14,29h-3c0-2.757,2.468-5,5.5-5S22,26.243,22,29z"/><path fill="#2100c4" d="M37,29h-3c0-1.103-1.121-2-2.5-2S29,27.897,29,29h-3c0-2.757,2.468-5,5.5-5S37,26.243,37,29z"/><path fill="#2100c4" d="M27.83,34h-3.86H19c0,1.36,0.92,2.72,2.46,3.45c0.12,0.06,0.24,0.11,0.37,0.15 C22.47,37.86,23.2,38,24,38c2.55,0,4.38-1.45,4.87-3.11L27.83,34z"/><path fill="#00b3d7" d="M32.035,12.863l1.654,2.12l1.762-2.031c0.288-0.356,0.467-0.804,0.48-1.297 c0.031-1.19-0.908-2.179-2.098-2.21c-1.19-0.031-2.179,0.908-2.21,2.098C31.61,12.036,31.765,12.493,32.035,12.863z"/><path fill="#00b3d7" d="M37.204,15.576l-0.33,3.395l3.395-0.33c0.576-0.076,1.133-0.332,1.575-0.774 c1.067-1.067,1.067-2.798,0-3.865c-1.067-1.067-2.798-1.067-3.865,0C37.536,14.443,37.279,15,37.204,15.576z"/><circle cx="26.5" cy="34.5" r="2.5" fill="#f55376"/><path fill="#f55376" d="M28.87,34.89C28.38,36.55,26.55,38,24,38c-0.8,0-1.53-0.14-2.17-0.4l2.471-4.305L27.83,34 L28.87,34.89z"/></svg>