<svg xmlns="http://www.w3.org/2000/svg"  viewBox="0 0 48 48" width="64px" height="64px"><path fill="#3dd9eb" d="M16.5,41C11.262,41,7,36.738,7,31.5V9h4v22.5c0,3.033,2.467,5.5,5.5,5.5s5.5-2.467,5.5-5.5V18.001h4 V31.5C26,36.738,21.738,41,16.5,41z"/><path fill="#3dd9eb" d="M41,39h-4V15.5c0-3.033-2.467-5.5-5.5-5.5S26,12.467,26,15.5v11h-4v-11c0-5.238,4.262-9.5,9.5-9.5 s9.5,4.262,9.5,9.5V39z"/><polygon fill="#3dd9eb" points="8.967,4 15,12 2.933,12"/><polygon fill="#3dd9eb" points="38.967,44 45,36 32.933,36"/><rect width="4" height="3" x="37" y="36" fill="#00b3d7"/><rect width="4" height="3" x="7" y="9" fill="#00b3d7"/></svg>