<?xml version="1.0" encoding="iso-8859-1"?>
<!-- Generator: Adobe Illustrator 23.0.3, SVG Export Plug-In . SVG Version: 6.00 Build 0)  -->
<svg version="1.1" id="Layer_1" xmlns="http://www.w3.org/2000/svg" xmlns:xlink="http://www.w3.org/1999/xlink" x="0px" y="0px"
	 viewBox="0 0 48 48" style="enable-background:new 0 0 48 48;" xml:space="preserve">
<g>
	<path style="fill:#3DD9EB;" d="M40,24c0,8.822-7.178,16-16,16S8,32.822,8,24S15.178,8,24,8S40,15.178,40,24 M44,24
		c0-11.046-8.955-20-20-20S4,12.954,4,24s8.955,20,20,20S44,35.046,44,24L44,24z"/>
</g>
<polygon style="fill:#3DD9EB;" points="24,13.154 16,21 21,21 21,35 27,35 27,21 32,21 "/>
<g>
	<rect x="21" y="18" style="fill:#00B3D7;" width="6" height="3"/>
</g>
</svg>